<mxfile host="65bd71144e">
    <diagram id="yv9AR8YwXmYQttPCIyxz" name="Page-1">
        <mxGraphModel dx="989" dy="906" grid="1" gridSize="10" guides="1" tooltips="1" connect="1" arrows="1" fold="1" page="1" pageScale="1" pageWidth="850" pageHeight="1100" math="0" shadow="0">
            <root>
                <mxCell id="0"/>
                <mxCell id="1" parent="0"/>
                <mxCell id="2" value="" style="ellipse;whiteSpace=wrap;html=1;" vertex="1" parent="1">
                    <mxGeometry x="348" y="80" width="115" height="80" as="geometry"/>
                </mxCell>
                <mxCell id="3" value="Flowchart Kasir Cafe Rynda" style="text;html=1;resizable=0;autosize=1;align=center;verticalAlign=middle;points=[];fillColor=none;strokeColor=none;rounded=0;strokeWidth=1;fontSize=17;" vertex="1" parent="1">
                    <mxGeometry x="310.5" width="230" height="30" as="geometry"/>
                </mxCell>
                <mxCell id="4" value="START" style="text;html=1;resizable=0;autosize=1;align=center;verticalAlign=middle;points=[];fillColor=none;strokeColor=none;rounded=0;fontSize=15;" vertex="1" parent="1">
                    <mxGeometry x="375" y="110" width="60" height="20" as="geometry"/>
                </mxCell>
                <mxCell id="5" value="" style="endArrow=classic;html=1;fontSize=15;exitX=0.5;exitY=1;exitDx=0;exitDy=0;entryX=0.5;entryY=0;entryDx=0;entryDy=0;" edge="1" parent="1" source="2">
                    <mxGeometry width="50" height="50" relative="1" as="geometry">
                        <mxPoint x="415" y="220" as="sourcePoint"/>
                        <mxPoint x="405.5" y="220" as="targetPoint"/>
                    </mxGeometry>
                </mxCell>
                <mxCell id="6" value="&lt;div style=&quot;text-align: justify&quot;&gt;Keterangan :&lt;/div&gt;&lt;div style=&quot;text-align: justify&quot;&gt;- NC&lt;span style=&quot;white-space: pre&quot;&gt;&#9;&lt;/span&gt;&lt;span style=&quot;white-space: pre&quot;&gt;&#9;&lt;/span&gt;= Nama Customer&lt;/div&gt;&lt;div style=&quot;text-align: justify&quot;&gt;- NM &lt;span style=&quot;white-space: pre&quot;&gt;&#9;&lt;/span&gt;= Nama Menu&lt;/div&gt;&lt;div style=&quot;text-align: justify&quot;&gt;- Q&amp;nbsp; &lt;span style=&quot;white-space: pre&quot;&gt;&#9;&lt;/span&gt;&lt;span style=&quot;white-space: pre&quot;&gt;&#9;&lt;/span&gt;= Quantity pesanan&lt;/div&gt;&lt;div style=&quot;text-align: justify&quot;&gt;- Total &lt;span style=&quot;white-space: pre&quot;&gt;&#9;&lt;/span&gt;= Jumlah Uang yang harus dibayar&lt;/div&gt;" style="text;html=1;resizable=0;autosize=1;align=center;verticalAlign=middle;points=[];fillColor=none;strokeColor=none;rounded=0;fontSize=15;" vertex="1" parent="1">
                    <mxGeometry x="530" y="90" width="320" height="100" as="geometry"/>
                </mxCell>
            </root>
        </mxGraphModel>
    </diagram>
</mxfile>